<svg width="583" height="602" viewBox="0 0 583 602" fill="none" xmlns="http://www.w3.org/2000/svg">
<g clip-path="url(#clip0_1_54)">
<path d="M180.206 278.412H176.976V271.991C176.976 263.13 169.74 255.938 160.829 255.938C151.918 255.938 144.688 263.13 144.688 271.991V278.412H141.458C137.89 278.412 135.005 281.285 135.005 284.834V316.94C135.005 320.483 137.89 323.362 141.458 323.362H180.206C183.774 323.362 186.658 320.483 186.658 316.94V284.834C186.658 281.285 183.774 278.412 180.206 278.412ZM160.829 307.308C157.267 307.308 154.376 304.43 154.376 300.887C154.376 297.338 157.267 294.466 160.829 294.466C164.397 294.466 167.288 297.338 167.288 300.887C167.288 304.43 164.397 307.308 160.829 307.308ZM170.843 278.412H150.82V271.991C150.82 266.498 155.31 262.033 160.829 262.033C166.353 262.033 170.843 266.498 170.843 271.991V278.412Z" fill="white"/>
<path d="M111.202 321.957L114.25 322.202L118.521 321.894L122.12 321.161L123.217 320.552L124.497 320.126L125.538 319.637L128.522 317.505L130.234 315.793L131.633 313.968L132.918 311.767L134.505 307.133L134.135 306.035L132.918 305.245L129.501 305.49L128.278 305.302L127.061 305.364L125.839 305.302L124.44 306.035L123.462 307.014L122.854 308.174L121.449 309.754L120.471 310.613L119.555 310.977L117.423 312.137L114.194 312.319L112.419 312.137L110.224 311.341L108.092 310.243L106.324 308.657L104.982 306.525L104.555 305.302L104.129 304.449L103.822 303.352L103.64 302.01V298.291L104.066 295.852L104.982 293.657L105.59 292.497L107.051 290.785L108.519 289.631L110.168 288.715L114.25 288.164L116.871 288.289L118.765 288.835L119.862 289.261L120.715 289.932L122.484 291.7L123.155 292.616L124.315 293.776L125.719 294.447L126.817 294.328L128.096 294.384L129.319 294.328L131.025 294.51L132.856 294.328L133.89 293.839L134.317 292.616L133.953 291.274L133.527 290.177L133.163 288.897L132.492 287.919L131.94 286.947L131.087 285.906L130.416 284.752L128.704 282.978L124.559 280.356L118.702 278.406L117.542 278.343L116.326 278.162L112.544 278.099L106.625 279.259L102.116 281.397L100.348 282.739L97.7202 285.116L96.0772 287.192L94.9171 288.96L93.3933 292.371L92.7787 294.873L92.1705 300.122L92.5404 304.574L93.3933 308.048L96.0145 313.354L98.5166 316.037L101.257 318.42L103.884 319.819L106.625 320.979L107.722 321.223L108.945 321.65L110.042 321.894L111.202 321.957Z" fill="white"/>
<path d="M160.967 322.258L166.398 321.713L168.718 320.979L174.142 318.54L178.413 314.451L179.209 313.354L181.586 309.146L182.012 307.986L182.194 306.769L182.564 305.791L182.809 304.449L183.11 300.179L182.809 295.971L182.32 293.713L181.83 292.434L181.523 291.029L180.426 289.016L179.999 287.919L179.209 286.884L178.476 286.151L177.685 285.053L175.058 282.677L171.948 280.726L163.959 278.224L161.093 278.162L156.822 278.406L155.6 278.651L154.383 279.014L153.286 279.504L150.965 280.112L147.855 282.068L147.002 282.796L145.052 284.138L143.403 285.969L141.327 289.016L140.782 290.057L139.622 293.412L139.132 296.033L138.888 303.107L139.559 306.951L140.474 309.027L140.844 310.306L141.453 311.403L144.318 315.31L146.024 316.953L146.82 317.869L150.965 320.063L152.126 320.552L157.312 322.076L160.967 322.258ZM159.262 311.529L158.045 311.096L156.942 310.977L154.872 309.879L152.978 308.23L152.37 307.377L151.574 306.525L150.42 303.107L150.113 300.059L150.175 298.228L150.602 295.971L150.965 294.873L151.699 294.021L152.245 292.986L153.041 292.008L153.957 291.217L155.725 289.995L156.822 289.443L158.102 289.142L160.911 288.897L163.839 289.079L167.069 290.484L168.963 291.888L170.361 293.958L170.85 295.055L171.22 296.278L171.647 297.375L171.885 299.997L171.521 303.051L170.976 305.546L170.305 306.462L169.753 307.377L169.019 308.475L167.132 309.942L166.034 310.425L165.056 310.977L163.959 311.096L162.799 311.403L159.262 311.529Z" fill="white"/>
<path d="M221.414 320.433L223.057 321.405L224.769 321.587L226.111 321.161L226.719 319.944L226.838 297.683L226.656 296.642V290.603L226.838 289.142L226.656 280.664L226.048 279.441L224.825 278.77L217.262 278.833L216.109 279.504L215.438 280.783L215.375 282.068L215.557 283.04L215.375 285.605L215.494 286.947L215.375 297.865L215.005 298.899L214.096 298.473L209.762 294.14L208.057 292.798L196.036 280.664L195.126 279.93L193.722 279.196L191.891 278.77L190.486 279.384L189.94 280.538V299.025L189.878 300.059L190.003 302.561L189.815 303.596L189.94 313.598L189.815 314.758L189.94 319.881L190.486 321.042L191.771 321.468L194.267 321.587L195.609 321.468L197.992 321.65L199.271 321.587L200.488 320.979L201.102 319.091L201.159 303.659L201.284 302.436L201.711 301.401L202.501 301.709L203.297 302.743L207.63 306.888L208.421 307.804L209.455 308.475L218.912 317.869L220.498 319.637L221.414 320.433Z" fill="white"/>
<path d="M247.334 321.587L251.416 321.468L253.184 320.86L253.799 319.148L253.981 315.981L253.799 313.661L253.918 312.382L253.855 309.942L253.981 308.845L253.799 307.503L253.918 297.683L253.736 296.397L253.918 291.092L254.407 289.261L255.567 288.534L257.944 288.408L260.201 288.715L261.481 288.534L262.578 288.59L263.619 287.919L264.346 286.577L264.409 280.783L263.738 279.566L262.578 278.77H258.797L257.637 278.651L256.357 278.833L255.197 278.713L250.262 278.952L249.039 278.713L247.879 278.651L246.6 278.833L245.258 278.713L244.161 278.952L240.561 278.77L238.667 278.952L234.403 278.713L233.243 279.322L232.509 280.726L232.572 281.943L232.447 284.991L232.572 286.884L233.118 287.982L234.215 288.59L235.438 288.471L241.232 288.59L242.392 289.205L243.063 290.421L242.938 292.371L243.063 294.083L243 295.425L243.063 296.642L242.938 298.354L243.126 307.44L243 308.657L242.938 313.598L243.063 314.884L243 318.42L242.881 319.574L243.671 320.916L245.44 321.531L247.334 321.587Z" fill="white"/>
<path d="M270.083 318.966L270.691 320.86L272.46 321.65L273.676 321.468L275.633 321.65L276.605 321.531H278.436L280.386 320.916L280.938 319.148V317.078L281.057 315.981L280.875 314.695L281.001 310.795L281.546 309.572L282.706 308.901L286.243 309.39L287.466 310.425L288.193 311.648L288.682 312.745L289.962 314.576L291.122 316.771L291.793 317.687L292.282 318.903L292.953 319.944L294.295 321.042L296.371 321.587L301.187 321.531L302.347 321.65L304.36 321.587L305.52 321.042L305.883 319.7L305.212 318.358L304.479 317.505L303.996 316.345L301.92 313.234L301.368 312.137L299.418 308.964L298.684 308.048L298.628 306.587L299.174 305.245L300.026 304.33L300.879 303.596L303.262 299.326L304.052 295.789L303.933 291.945L303.751 290.728L302.654 287.248L302.165 286.213L301.494 285.235L298.013 281.579L295.881 280.419L293.561 279.623L290.087 278.833L288.137 278.77L286.369 278.895H282.706L281.484 278.651H280.267L279.17 278.952H277.947L276.73 278.713L275.388 278.651L271.789 278.952L270.691 279.566L269.958 281.272L270.02 295.243L270.14 296.46L269.958 298.899L270.02 300.241V301.464L270.14 302.618L270.02 303.778L269.958 308.719L270.083 309.942V318.966ZM282.706 299.144L281.484 298.473L281.001 297.495V293.839L280.875 292.798L281.001 290.239L281.546 289.079L282.826 288.59L284.048 288.653L286.488 288.408L288.193 288.772L289.78 288.897L290.94 289.205L292.464 291.092L292.834 292.07L293.072 293.657L292.89 295.482L292.345 296.704L291.674 297.62L291.003 298.166L289.905 298.655L288.137 299.081L286.977 299.144L284.048 299.025L282.706 299.144Z" fill="white"/>
<path d="M332.289 322.258L337.719 321.713L340.04 320.979L345.464 318.54L349.734 314.451L350.531 313.354L352.907 309.146L353.334 307.986L353.516 306.769L353.886 305.791L354.13 304.449L354.431 300.179L354.13 295.971L353.641 293.713L353.152 292.434L352.845 291.029L351.747 289.016L351.321 287.919L350.531 286.884L349.797 286.151L349.007 285.053L346.379 282.677L343.269 280.726L335.28 278.224L332.414 278.162L328.144 278.406L326.921 278.651L325.705 279.014L324.607 279.504L322.287 280.112L319.177 282.068L318.324 282.796L316.374 284.138L314.724 285.969L312.649 289.016L312.103 290.057L310.943 293.412L310.454 296.033L310.209 303.107L310.88 306.951L311.796 309.027L312.166 310.306L312.774 311.403L315.64 315.31L317.346 316.953L318.142 317.869L322.287 320.063L323.447 320.552L328.633 322.076L332.289 322.258ZM330.583 311.529L329.367 311.096L328.263 310.977L326.194 309.879L324.3 308.23L323.692 307.377L322.895 306.525L321.741 303.107L321.434 300.059L321.497 298.228L321.923 295.971L322.287 294.873L323.021 294.021L323.566 292.986L324.363 292.008L325.278 291.217L327.047 289.995L328.144 289.443L329.423 289.142L332.232 288.897L335.161 289.079L338.39 290.484L340.284 291.888L341.683 293.958L342.172 295.055L342.542 296.278L342.968 297.375L343.206 299.997L342.843 303.051L342.297 305.546L341.626 306.462L341.074 307.377L340.341 308.475L338.453 309.942L337.356 310.425L336.378 310.977L335.28 311.096L334.12 311.403L330.583 311.529Z" fill="white"/>
<path d="M361.381 319.273L361.807 320.86L362.968 321.468L364.19 321.587L366.749 321.405L369.132 321.531L371.446 321.405L372.606 321.587L373.948 321.468L386.025 321.531L387.186 320.916L387.856 319.029L387.794 314.087L387.242 312.256L386.145 311.529L384.865 311.648L383.705 311.892L382.426 311.711L379.924 311.767L378.707 311.529L377.61 311.711L375.227 311.585L373.948 311.711L372.725 311.221L372.242 309.999L372.299 289.324L372.179 287.863L372.299 285.423L372.117 281.943L372.179 280.783L371.571 279.441L370.348 278.713H367.972L366.749 278.952L364.31 278.713L363.149 278.895L361.87 279.384L361.325 280.726V289.261L361.199 290.421L361.325 291.644L361.136 293.901L361.199 295.243L361.325 296.397L361.381 319.273Z" fill="white"/>
<path d="M397.731 321.65L400.722 321.531L401.819 321.587L403.224 321.468L404.503 320.979L405.055 319.7L404.992 318.477L405.055 317.135L404.929 314.884L405.055 313.724L404.992 312.319L405.538 311.221L406.942 310.55L408.284 310.425L409.564 310.67L415.847 310.187L421.641 307.867L422.557 307.133L423.41 306.161L424.206 305.364L424.996 304.449L426.275 302.499L427.316 300.122L427.498 298.78L427.862 297.802L427.987 292.798L427.743 291.763L427.561 290.421L426.827 288.164L425.667 286.094L424.206 284.081L421.459 281.698L419.446 280.356L417.007 279.623L415.972 279.196H414.75L413.533 278.77L411.702 278.713L409.752 278.77L408.41 278.952L404.685 278.895L403.468 278.713L399.687 278.952L398.345 278.895L397.248 278.713L395.962 278.952L394.683 279.623L394.137 280.601L394.194 287.982L393.949 290.421L394.075 291.581L394.012 307.377L394.137 308.538L394.075 319.819L394.746 320.979L396.633 321.587L397.731 321.65ZM406.88 300.793L405.663 300.059L405.111 299.025L404.929 294.083L405.055 292.798V290.302L405.663 289.142L406.942 288.534L413.288 288.715L414.505 289.261L415.483 289.932L416.273 290.728L416.888 291.945L417.07 293.042L417.189 294.754L417.07 296.397L416.643 297.495L416.092 298.473L415.301 299.451L414.323 300.179L413.345 300.486L411.457 300.73L408.347 300.668L406.88 300.793Z" fill="white"/>
<path d="M448.479 321.65H450.31L452.197 321.405H453.42L455.188 320.86L457.69 320.433L460.556 319.21L464.638 316.464L467.63 312.626L468.238 311.403L468.972 310.425L469.95 308.048L470.251 306.888L470.495 305.609L470.865 304.574L471.047 303.352V302.072L471.229 300.122L471.166 298.354L470.314 293.531L469.523 291.217L469.034 290.057L466.959 286.822L463.729 283.222L460.613 281.153L459.459 280.482L458.236 280.237L457.201 279.748L455.916 279.441L452.323 278.895L438.414 278.77L437.316 278.952L436.094 278.895L434.752 279.441L434.206 280.726L434.143 314.821L434.269 315.981V319.091L434.877 320.979L436.094 321.587L437.316 321.468L444.754 321.587L445.976 321.405L448.479 321.65ZM448.297 311.648L447.137 311.529L445.732 310.858L445.243 309.698L445.186 308.657L445.243 306.161L444.998 303.17L445.243 300.122L445.124 291.7L445.243 290.666L445.857 289.261L447.808 288.835L450.366 288.772L452.134 288.96L454.517 289.631L455.615 290.177L456.53 290.847L457.446 291.7L458.361 292.798L458.97 293.839L459.515 294.936L460.493 300.304L459.885 304.574L458.844 306.832L456.587 309.39L454.517 310.732L452.749 311.284L450.122 311.585L448.297 311.648Z" fill="white"/>
<path d="M351.675 278.412H348.446V271.991C348.446 263.13 341.215 255.938 332.305 255.938C323.394 255.938 316.164 263.13 316.164 271.991V278.412H312.934C309.366 278.412 306.475 281.285 306.475 284.834V316.94C306.475 320.483 309.366 323.362 312.934 323.362H351.675C355.243 323.362 358.134 320.483 358.134 316.94V284.834C358.134 281.285 355.243 278.412 351.675 278.412ZM332.305 307.308C328.737 307.308 325.846 304.43 325.846 300.887C325.846 297.338 328.737 294.466 332.305 294.466C335.873 294.466 338.764 297.338 338.764 300.887C338.764 304.43 335.873 307.308 332.305 307.308ZM342.313 278.412H322.296V271.991C322.296 266.498 326.786 262.033 332.305 262.033C337.823 262.033 342.313 266.498 342.313 271.991V278.412Z" fill="white"/>
<path d="M100.136 369.07C100.136 370.713 99.6817 371.951 98.773 372.782C97.8837 373.594 96.598 374 94.916 374H91.088V371.796H95.206C95.9213 371.796 96.5013 371.583 96.946 371.158C97.3907 370.733 97.613 370.22 97.613 369.621V366.605C97.613 366.025 97.4583 365.561 97.149 365.213C96.859 364.846 96.4143 364.662 95.815 364.662H95.235C93.8043 364.662 92.6733 364.246 91.842 363.415C91.0107 362.564 90.595 361.337 90.595 359.732V358.63C90.595 356.987 91.0397 355.759 91.929 354.947C92.8377 354.116 94.133 353.7 95.815 353.7H99.672V355.904H95.525C94.8097 355.904 94.2297 356.117 93.785 356.542C93.3403 356.967 93.118 357.48 93.118 358.079V360.283C93.118 360.882 93.3113 361.385 93.698 361.791C94.0847 362.178 94.5873 362.371 95.206 362.371H95.786C97.1587 362.371 98.222 362.767 98.976 363.56C99.7493 364.353 100.136 365.551 100.136 367.156V369.07ZM103.919 356.31V353.7H106.674V356.31H103.919ZM104.064 374V359.5H106.529V374H104.064ZM118.829 370.375C118.829 371.593 118.452 372.502 117.698 373.101C116.963 373.7 115.89 374 114.479 374H110.738V371.825H114.769C115.291 371.825 115.687 371.719 115.958 371.506C116.228 371.274 116.364 370.945 116.364 370.52V368.983C116.364 368.113 115.948 367.678 115.117 367.678H114.624C113.27 367.678 112.255 367.388 111.579 366.808C110.921 366.209 110.593 365.271 110.593 363.995V363.154C110.593 361.859 110.96 360.931 111.695 360.37C112.429 359.79 113.512 359.5 114.943 359.5H118.249V361.675H114.653C114.169 361.675 113.783 361.791 113.493 362.023C113.203 362.236 113.058 362.555 113.058 362.98V364.024C113.058 364.469 113.183 364.797 113.435 365.01C113.705 365.223 114.044 365.329 114.45 365.329H114.856C116.151 365.329 117.137 365.648 117.814 366.286C118.49 366.905 118.829 367.833 118.829 369.07V370.375ZM125.946 374C124.96 374 124.206 373.681 123.684 373.043C123.162 372.405 122.901 371.564 122.901 370.52V361.675H121.016V359.5H122.901V356.02H125.366V359.5H128.73V361.675H125.366V370.665C125.366 371.09 125.472 371.39 125.685 371.564C125.897 371.738 126.226 371.825 126.671 371.825H128.73V374H125.946ZM136.401 374C134.7 374 133.453 373.642 132.66 372.927C131.868 372.192 131.471 371.003 131.471 369.36V364.14C131.471 362.477 131.829 361.288 132.544 360.573C133.26 359.858 134.449 359.5 136.111 359.5H136.894C138.267 359.5 139.301 359.887 139.997 360.66C140.713 361.414 141.07 362.526 141.07 363.995V367.765H133.936V369.94C133.936 370.539 134.12 371.003 134.487 371.332C134.855 371.661 135.396 371.825 136.111 371.825H140.142V374H136.401ZM138.663 365.59V363.415C138.663 362.912 138.499 362.497 138.17 362.168C137.842 361.839 137.426 361.675 136.923 361.675H135.821C135.125 361.675 134.632 361.839 134.342 362.168C134.072 362.477 133.936 362.941 133.936 363.56V365.59H138.663ZM145.27 359.5H147.59V360.196C148.19 359.732 148.963 359.5 149.91 359.5H150.084C151.844 359.5 153.1 359.945 153.854 360.834C154.57 359.945 155.565 359.5 156.841 359.5H157.015C158.581 359.5 159.741 359.867 160.495 360.602C161.269 361.337 161.655 362.516 161.655 364.14V374H159.19V363.56C159.19 362.98 159.016 362.526 158.668 362.197C158.34 361.849 157.885 361.675 157.305 361.675H156.551C155.952 361.675 155.498 361.859 155.188 362.226C154.898 362.574 154.734 362.951 154.695 363.357V374H152.23V363.56C152.23 362.98 152.066 362.526 151.737 362.197C151.409 361.849 150.954 361.675 150.374 361.675H149.62C149.002 361.675 148.528 361.839 148.199 362.168C147.89 362.477 147.735 362.816 147.735 363.183V374H145.27V359.5ZM174.697 374C174.446 374 174.166 373.923 173.856 373.768C173.566 373.613 173.315 373.401 173.102 373.13C172.658 373.71 172.068 374 171.333 374H169.332C167.863 374 166.79 373.71 166.113 373.13C165.456 372.531 165.127 371.516 165.127 370.085V369.505C165.127 366.508 166.539 365.01 169.361 365.01H172.377V363.56C172.377 362.961 172.194 362.497 171.826 362.168C171.459 361.839 170.918 361.675 170.202 361.675H166.287V359.5H169.912C171.594 359.5 172.832 359.867 173.624 360.602C174.436 361.337 174.842 362.516 174.842 364.14V371.1C174.842 371.39 174.949 371.612 175.161 371.767C175.393 371.902 175.77 371.97 176.292 371.97V374H174.697ZM171.043 371.825C171.623 371.825 171.991 371.69 172.145 371.419C172.3 371.148 172.377 370.8 172.377 370.375V367.185H169.332C168.83 367.185 168.414 367.349 168.085 367.678C167.757 368.007 167.592 368.422 167.592 368.925V370.375C167.592 370.878 167.708 371.245 167.94 371.477C168.172 371.709 168.54 371.825 169.042 371.825H171.043ZM194.867 373.333C194.229 373.778 193.455 374 192.547 374H191.938C190.236 374 188.989 373.642 188.197 372.927C187.404 372.192 187.008 371.003 187.008 369.36V364.14C187.008 362.516 187.404 361.337 188.197 360.602C189.009 359.867 190.256 359.5 191.938 359.5H194.722V353.7H197.187V374H194.867V373.333ZM192.837 371.825C193.475 371.825 193.948 371.661 194.258 371.332C194.567 370.984 194.722 370.617 194.722 370.23V361.675H191.648C190.932 361.675 190.391 361.839 190.024 362.168C189.656 362.497 189.473 362.961 189.473 363.56V369.94C189.473 370.539 189.656 371.003 190.024 371.332C190.391 371.661 190.932 371.825 191.648 371.825H192.837ZM206.466 374C204.765 374 203.518 373.642 202.725 372.927C201.932 372.192 201.536 371.003 201.536 369.36V364.14C201.536 362.477 201.894 361.288 202.609 360.573C203.324 359.858 204.513 359.5 206.176 359.5H206.959C208.332 359.5 209.366 359.887 210.062 360.66C210.777 361.414 211.135 362.526 211.135 363.995V367.765H204.001V369.94C204.001 370.539 204.185 371.003 204.552 371.332C204.919 371.661 205.461 371.825 206.176 371.825H210.207V374H206.466ZM208.728 365.59V363.415C208.728 362.912 208.564 362.497 208.235 362.168C207.906 361.839 207.491 361.675 206.988 361.675H205.886C205.19 361.675 204.697 361.839 204.407 362.168C204.136 362.477 204.001 362.941 204.001 363.56V365.59H208.728ZM230.524 370.375C230.524 371.593 230.147 372.502 229.393 373.101C228.658 373.7 227.585 374 226.174 374H222.433V371.825H226.464C226.986 371.825 227.382 371.719 227.653 371.506C227.924 371.274 228.059 370.945 228.059 370.52V368.983C228.059 368.113 227.643 367.678 226.812 367.678H226.319C224.966 367.678 223.951 367.388 223.274 366.808C222.617 366.209 222.288 365.271 222.288 363.995V363.154C222.288 361.859 222.655 360.931 223.39 360.37C224.125 359.79 225.207 359.5 226.638 359.5H229.944V361.675H226.348C225.865 361.675 225.478 361.791 225.188 362.023C224.898 362.236 224.753 362.555 224.753 362.98V364.024C224.753 364.469 224.879 364.797 225.13 365.01C225.401 365.223 225.739 365.329 226.145 365.329H226.551C227.846 365.329 228.832 365.648 229.509 366.286C230.186 366.905 230.524 367.833 230.524 369.07V370.375ZM239.091 374C237.39 374 236.143 373.642 235.35 372.927C234.557 372.192 234.161 371.003 234.161 369.36V364.14C234.161 362.477 234.519 361.288 235.234 360.573C235.949 359.858 237.138 359.5 238.801 359.5H239.584C240.957 359.5 241.991 359.887 242.687 360.66C243.402 361.414 243.76 362.526 243.76 363.995V367.765H236.626V369.94C236.626 370.539 236.81 371.003 237.177 371.332C237.544 371.661 238.086 371.825 238.801 371.825H242.832V374H239.091ZM241.353 365.59V363.415C241.353 362.912 241.189 362.497 240.86 362.168C240.531 361.839 240.116 361.675 239.613 361.675H238.511C237.815 361.675 237.322 361.839 237.032 362.168C236.761 362.477 236.626 362.941 236.626 363.56V365.59H241.353ZM258.516 375.015C258.516 376.33 258.119 377.306 257.327 377.944C256.553 378.601 255.335 378.93 253.673 378.93H247.815V376.755H253.963C254.659 376.755 255.181 376.62 255.529 376.349C255.877 376.078 256.051 375.73 256.051 375.305V374.377C256.051 373.932 255.877 373.584 255.529 373.333C255.181 373.062 254.659 372.927 253.963 372.927H249.12V368.925C248.482 368.577 248.008 368.074 247.699 367.417C247.389 366.76 247.235 365.909 247.235 364.865V364.14C247.235 362.516 247.631 361.337 248.424 360.602C249.236 359.867 250.483 359.5 252.165 359.5H258.081V364.865C258.081 366.315 257.684 367.456 256.892 368.287C256.099 369.099 255.045 369.505 253.731 369.505H251.585V370.752H253.673C255.335 370.752 256.553 371.081 257.327 371.738C258.119 372.376 258.516 373.352 258.516 374.667V375.015ZM253.731 367.33C254.33 367.33 254.784 367.137 255.094 366.75C255.403 366.363 255.577 365.957 255.616 365.532V361.675H251.875C251.159 361.675 250.618 361.839 250.251 362.168C249.883 362.497 249.7 362.961 249.7 363.56V365.445C249.7 366.044 249.883 366.508 250.251 366.837C250.618 367.166 251.159 367.33 251.875 367.33H253.731ZM269.511 373.333C268.873 373.778 268.099 374 267.191 374H266.785C265.219 374 264.049 373.633 263.276 372.898C262.522 372.163 262.145 370.984 262.145 369.36V359.5H264.61V369.94C264.61 370.52 264.774 370.984 265.103 371.332C265.451 371.661 265.915 371.825 266.495 371.825H267.481C268.099 371.825 268.554 371.67 268.844 371.361C269.153 371.052 269.327 370.704 269.366 370.317V359.5H271.831V374H269.511V373.333ZM276.478 359.5H278.798V360.283C279.436 359.761 280.21 359.5 281.118 359.5H283.235V361.82H280.828C280.19 361.82 279.717 362.033 279.407 362.458C279.098 362.883 278.943 363.299 278.943 363.705V374H276.478V359.5ZM294.549 374C294.297 374 294.017 373.923 293.708 373.768C293.418 373.613 293.166 373.401 292.954 373.13C292.509 373.71 291.919 374 291.185 374H289.184C287.714 374 286.641 373.71 285.965 373.13C285.307 372.531 284.979 371.516 284.979 370.085V369.505C284.979 366.508 286.39 365.01 289.213 365.01H292.229V363.56C292.229 362.961 292.045 362.497 291.678 362.168C291.31 361.839 290.769 361.675 290.054 361.675H286.139V359.5H289.764C291.446 359.5 292.683 359.867 293.476 360.602C294.288 361.337 294.694 362.516 294.694 364.14V371.1C294.694 371.39 294.8 371.612 295.013 371.767C295.245 371.902 295.622 371.97 296.144 371.97V374H294.549ZM290.895 371.825C291.475 371.825 291.842 371.69 291.997 371.419C292.151 371.148 292.229 370.8 292.229 370.375V367.185H289.184C288.681 367.185 288.265 367.349 287.937 367.678C287.608 368.007 287.444 368.422 287.444 368.925V370.375C287.444 370.878 287.56 371.245 287.792 371.477C288.024 371.709 288.391 371.825 288.894 371.825H290.895ZM299.616 359.5H301.936V360.196C302.535 359.732 303.309 359.5 304.256 359.5H305.01C306.576 359.5 307.736 359.867 308.49 360.602C309.263 361.337 309.65 362.516 309.65 364.14V374H307.185V363.56C307.185 362.98 307.011 362.526 306.663 362.197C306.334 361.849 305.88 361.675 305.3 361.675H303.966C303.328 361.675 302.854 361.849 302.545 362.197C302.236 362.526 302.081 362.883 302.081 363.27V374H299.616V359.5ZM316.667 377.944H318.61C319.248 377.944 319.567 377.644 319.567 377.045C319.567 376.716 319.48 376.494 319.306 376.378C319.152 376.262 318.9 376.204 318.552 376.204H317.131V373.884C316.029 373.671 315.208 373.207 314.666 372.492C314.125 371.757 313.854 370.713 313.854 369.36V364.14C313.854 362.516 314.251 361.337 315.043 360.602C315.855 359.867 317.102 359.5 318.784 359.5H321.945V361.675H318.494C317.779 361.675 317.238 361.839 316.87 362.168C316.503 362.497 316.319 362.961 316.319 363.56V369.94C316.319 370.539 316.503 371.003 316.87 371.332C317.238 371.661 317.779 371.825 318.494 371.825H321.945V374H319.161V374.609C320.051 374.609 320.689 374.773 321.075 375.102C321.481 375.45 321.684 376.098 321.684 377.045C321.684 378.166 321.433 378.901 320.93 379.249C320.447 379.616 319.848 379.8 319.132 379.8H316.667V377.944ZM334.282 374C334.031 374 333.751 373.923 333.441 373.768C333.151 373.613 332.9 373.401 332.687 373.13C332.243 373.71 331.653 374 330.918 374H328.917C327.448 374 326.375 373.71 325.698 373.13C325.041 372.531 324.712 371.516 324.712 370.085V369.505C324.712 366.508 326.124 365.01 328.946 365.01H331.962V363.56C331.962 362.961 331.779 362.497 331.411 362.168C331.044 361.839 330.503 361.675 329.787 361.675H325.872V359.5H329.497C331.179 359.5 332.417 359.867 333.209 360.602C334.021 361.337 334.427 362.516 334.427 364.14V371.1C334.427 371.39 334.534 371.612 334.746 371.767C334.978 371.902 335.355 371.97 335.877 371.97V374H334.282ZM330.628 371.825C331.208 371.825 331.576 371.69 331.73 371.419C331.885 371.148 331.962 370.8 331.962 370.375V367.185H328.917C328.415 367.185 327.999 367.349 327.67 367.678C327.342 368.007 327.177 368.422 327.177 368.925V370.375C327.177 370.878 327.293 371.245 327.525 371.477C327.757 371.709 328.125 371.825 328.627 371.825H330.628ZM354.452 373.333C353.814 373.778 353.04 374 352.132 374H351.523C349.821 374 348.574 373.642 347.782 372.927C346.989 372.192 346.593 371.003 346.593 369.36V364.14C346.593 362.516 346.989 361.337 347.782 360.602C348.594 359.867 349.841 359.5 351.523 359.5H354.307V353.7H356.772V374H354.452V373.333ZM352.422 371.825C353.06 371.825 353.533 371.661 353.843 371.332C354.152 370.984 354.307 370.617 354.307 370.23V361.675H351.233C350.517 361.675 349.976 361.839 349.609 362.168C349.241 362.497 349.058 362.961 349.058 363.56V369.94C349.058 370.539 349.241 371.003 349.609 371.332C349.976 371.661 350.517 371.825 351.233 371.825H352.422ZM369.966 374C369.714 374 369.434 373.923 369.125 373.768C368.835 373.613 368.583 373.401 368.371 373.13C367.926 373.71 367.336 374 366.602 374H364.601C363.131 374 362.058 373.71 361.382 373.13C360.724 372.531 360.396 371.516 360.396 370.085V369.505C360.396 366.508 361.807 365.01 364.63 365.01H367.646V363.56C367.646 362.961 367.462 362.497 367.095 362.168C366.727 361.839 366.186 361.675 365.471 361.675H361.556V359.5H365.181C366.863 359.5 368.1 359.867 368.893 360.602C369.705 361.337 370.111 362.516 370.111 364.14V371.1C370.111 371.39 370.217 371.612 370.43 371.767C370.662 371.902 371.039 371.97 371.561 371.97V374H369.966ZM366.312 371.825C366.892 371.825 367.259 371.69 367.414 371.419C367.568 371.148 367.646 370.8 367.646 370.375V367.185H364.601C364.098 367.185 363.682 367.349 363.354 367.678C363.025 368.007 362.861 368.422 362.861 368.925V370.375C362.861 370.878 362.977 371.245 363.209 371.477C363.441 371.709 363.808 371.825 364.311 371.825H366.312ZM382.711 374V353.7H392.223V355.817H385.234V362.458H391.498V364.575H385.234V371.883H392.223V374H382.711ZM401.377 355.904V374H398.854V355.904H394.388V353.7H405.843V355.904H401.377ZM408.737 374V353.7H418.249V355.817H411.26V362.458H417.524V364.575H411.26V371.883H418.249V374H408.737ZM440.157 361.53C440.157 363.096 439.741 364.256 438.91 365.01C438.078 365.745 436.851 366.112 435.227 366.112H432.501V374H429.978V353.7H435.169C436.812 353.7 438.049 354.067 438.881 354.802C439.731 355.517 440.157 356.658 440.157 358.224V361.53ZM437.634 357.963C437.634 357.228 437.46 356.697 437.112 356.368C436.783 356.039 436.251 355.875 435.517 355.875H432.501V363.937H435.517C436.251 363.937 436.783 363.773 437.112 363.444C437.46 363.096 437.634 362.555 437.634 361.82V357.963ZM453.005 369.36C453.005 370.984 452.599 372.163 451.787 372.898C450.995 373.633 449.757 374 448.075 374H447.698C446.016 374 444.769 373.633 443.957 372.898C443.165 372.163 442.768 370.984 442.768 369.36V364.14C442.768 362.516 443.165 361.337 443.957 360.602C444.769 359.867 446.016 359.5 447.698 359.5H448.075C449.757 359.5 450.995 359.867 451.787 360.602C452.599 361.337 453.005 362.516 453.005 364.14V369.36ZM450.54 363.56C450.54 362.961 450.357 362.497 449.989 362.168C449.622 361.839 449.081 361.675 448.365 361.675H447.408C446.693 361.675 446.152 361.839 445.784 362.168C445.417 362.497 445.233 362.961 445.233 363.56V369.94C445.233 370.539 445.417 371.003 445.784 371.332C446.152 371.661 446.693 371.825 447.408 371.825H448.365C449.081 371.825 449.622 371.661 449.989 371.332C450.357 371.003 450.54 370.539 450.54 369.94V363.56ZM457.36 359.5H459.68V360.283C460.318 359.761 461.091 359.5 462 359.5H464.117V361.82H461.71C461.072 361.82 460.598 362.033 460.289 362.458C459.98 362.883 459.825 363.299 459.825 363.705V374H457.36V359.5ZM470.207 374C469.221 374 468.467 373.681 467.945 373.043C467.423 372.405 467.162 371.564 467.162 370.52V361.675H465.277V359.5H467.162V356.02H469.627V359.5H472.991V361.675H469.627V370.665C469.627 371.09 469.734 371.39 469.946 371.564C470.159 371.738 470.488 371.825 470.932 371.825H472.991V374H470.207ZM485.97 369.36C485.97 370.984 485.564 372.163 484.752 372.898C483.959 373.633 482.722 374 481.04 374H480.663C478.981 374 477.734 373.633 476.922 372.898C476.129 372.163 475.733 370.984 475.733 369.36V364.14C475.733 362.516 476.129 361.337 476.922 360.602C477.734 359.867 478.981 359.5 480.663 359.5H481.04C482.722 359.5 483.959 359.867 484.752 360.602C485.564 361.337 485.97 362.516 485.97 364.14V369.36ZM483.505 363.56C483.505 362.961 483.321 362.497 482.954 362.168C482.587 361.839 482.045 361.675 481.33 361.675H480.373C479.658 361.675 479.116 361.839 478.749 362.168C478.382 362.497 478.198 362.961 478.198 363.56V369.94C478.198 370.539 478.382 371.003 478.749 371.332C479.116 371.661 479.658 371.825 480.373 371.825H481.33C482.045 371.825 482.587 371.661 482.954 371.332C483.321 371.003 483.505 370.539 483.505 369.94V363.56ZM508.617 369.418C508.617 371.081 508.23 372.26 507.457 372.956C506.703 373.652 505.446 374 503.687 374H498.003V353.7H503.339C505.079 353.7 506.394 354.058 507.283 354.773C508.172 355.469 508.617 356.619 508.617 358.224V369.418ZM506.094 357.963C506.094 357.325 505.901 356.822 505.514 356.455C505.127 356.068 504.615 355.875 503.977 355.875H500.526V371.825H503.948C504.683 371.825 505.224 371.661 505.572 371.332C505.92 370.984 506.094 370.443 506.094 369.708V357.963ZM512.978 356.31V353.7H515.733V356.31H512.978ZM513.123 374V359.5H515.588V374H513.123ZM530.787 375.015C530.787 376.33 530.391 377.306 529.598 377.944C528.825 378.601 527.607 378.93 525.944 378.93H520.086V376.755H526.234C526.93 376.755 527.452 376.62 527.8 376.349C528.148 376.078 528.322 375.73 528.322 375.305V374.377C528.322 373.932 528.148 373.584 527.8 373.333C527.452 373.062 526.93 372.927 526.234 372.927H521.391V368.925C520.753 368.577 520.279 368.074 519.97 367.417C519.661 366.76 519.506 365.909 519.506 364.865V364.14C519.506 362.516 519.902 361.337 520.695 360.602C521.507 359.867 522.754 359.5 524.436 359.5H530.352V364.865C530.352 366.315 529.956 367.456 529.163 368.287C528.37 369.099 527.317 369.505 526.002 369.505H523.856V370.752H525.944C527.607 370.752 528.825 371.081 529.598 371.738C530.391 372.376 530.787 373.352 530.787 374.667V375.015ZM526.002 367.33C526.601 367.33 527.056 367.137 527.365 366.75C527.674 366.363 527.848 365.957 527.887 365.532V361.675H524.146C523.431 361.675 522.889 361.839 522.522 362.168C522.155 362.497 521.971 362.961 521.971 363.56V365.445C521.971 366.044 522.155 366.508 522.522 366.837C522.889 367.166 523.431 367.33 524.146 367.33H526.002ZM534.416 356.31V353.7H537.171V356.31H534.416ZM534.561 374V359.5H537.026V374H534.561ZM544.86 374C543.874 374 543.12 373.681 542.598 373.043C542.076 372.405 541.815 371.564 541.815 370.52V361.675H539.93V359.5H541.815V356.02H544.28V359.5H547.644V361.675H544.28V370.665C544.28 371.09 544.386 371.39 544.599 371.564C544.811 371.738 545.14 371.825 545.585 371.825H547.644V374H544.86ZM559.23 374C558.979 374 558.699 373.923 558.389 373.768C558.099 373.613 557.848 373.401 557.635 373.13C557.191 373.71 556.601 374 555.866 374H553.865C552.396 374 551.323 373.71 550.646 373.13C549.989 372.531 549.66 371.516 549.66 370.085V369.505C549.66 366.508 551.072 365.01 553.894 365.01H556.91V363.56C556.91 362.961 556.727 362.497 556.359 362.168C555.992 361.839 555.451 361.675 554.735 361.675H550.82V359.5H554.445C556.127 359.5 557.365 359.867 558.157 360.602C558.969 361.337 559.375 362.516 559.375 364.14V371.1C559.375 371.39 559.482 371.612 559.694 371.767C559.926 371.902 560.303 371.97 560.825 371.97V374H559.23ZM555.576 371.825C556.156 371.825 556.524 371.69 556.678 371.419C556.833 371.148 556.91 370.8 556.91 370.375V367.185H553.865C553.363 367.185 552.947 367.349 552.618 367.678C552.29 368.007 552.125 368.422 552.125 368.925V370.375C552.125 370.878 552.241 371.245 552.473 371.477C552.705 371.709 553.073 371.825 553.575 371.825H555.576ZM566.618 374C565.96 374 565.38 373.768 564.878 373.304C564.394 372.84 564.153 372.105 564.153 371.1V353.7H566.618V370.955C566.618 371.264 566.695 371.487 566.85 371.622C567.004 371.757 567.265 371.825 567.633 371.825H568.213V374H566.618ZM571.113 374V371.1H574.013V374H571.113Z" fill="white"/>
<g filter="url(#filter0_d_1_54)">
<rect x="91" y="405" width="120" height="41" rx="20.5" fill="#1682EF"/>
</g>
<path d="M119.7 431V417H121.44V429.48H125.9V431H119.7ZM131.003 431C129.83 431 128.97 430.753 128.423 430.26C127.876 429.753 127.603 428.933 127.603 427.8V424.2C127.603 423.053 127.85 422.233 128.343 421.74C128.836 421.247 129.656 421 130.803 421H131.343C132.29 421 133.003 421.267 133.483 421.8C133.976 422.32 134.223 423.087 134.223 424.1V426.7H129.303V428.2C129.303 428.613 129.43 428.933 129.683 429.16C129.936 429.387 130.31 429.5 130.803 429.5H133.583V431H131.003ZM132.563 425.2V423.7C132.563 423.353 132.45 423.067 132.223 422.84C131.996 422.613 131.71 422.5 131.363 422.5H130.603C130.123 422.5 129.783 422.613 129.583 422.84C129.396 423.053 129.303 423.373 129.303 423.8V425.2H132.563ZM137.12 421H138.72V421.54C139.16 421.18 139.693 421 140.32 421H141.78V422.6H140.12C139.68 422.6 139.353 422.747 139.14 423.04C138.926 423.333 138.82 423.62 138.82 423.9V431H137.12V421ZM148.975 421H150.575V421.48C150.988 421.16 151.522 421 152.175 421H152.295C153.508 421 154.375 421.307 154.895 421.92C155.388 421.307 156.075 421 156.955 421H157.075C158.155 421 158.955 421.253 159.475 421.76C160.008 422.267 160.275 423.08 160.275 424.2V431H158.575V423.8C158.575 423.4 158.455 423.087 158.215 422.86C157.988 422.62 157.675 422.5 157.275 422.5H156.755C156.342 422.5 156.028 422.627 155.815 422.88C155.615 423.12 155.502 423.38 155.475 423.66V431H153.775V423.8C153.775 423.4 153.662 423.087 153.435 422.86C153.208 422.62 152.895 422.5 152.495 422.5H151.975C151.548 422.5 151.222 422.613 150.995 422.84C150.782 423.053 150.675 423.287 150.675 423.54V431H148.975V421ZM169.27 431C169.096 431 168.903 430.947 168.69 430.84C168.49 430.733 168.316 430.587 168.17 430.4C167.863 430.8 167.456 431 166.95 431H165.57C164.556 431 163.816 430.8 163.35 430.4C162.896 429.987 162.67 429.287 162.67 428.3V427.9C162.67 425.833 163.643 424.8 165.59 424.8H167.67V423.8C167.67 423.387 167.543 423.067 167.29 422.84C167.036 422.613 166.663 422.5 166.17 422.5H163.47V421H165.97C167.13 421 167.983 421.253 168.53 421.76C169.09 422.267 169.37 423.08 169.37 424.2V429C169.37 429.2 169.443 429.353 169.59 429.46C169.75 429.553 170.01 429.6 170.37 429.6V431H169.27ZM166.75 429.5C167.15 429.5 167.403 429.407 167.51 429.22C167.616 429.033 167.67 428.793 167.67 428.5V426.3H165.57C165.223 426.3 164.936 426.413 164.71 426.64C164.483 426.867 164.37 427.153 164.37 427.5V428.5C164.37 428.847 164.45 429.1 164.61 429.26C164.77 429.42 165.023 429.5 165.37 429.5H166.75ZM172.664 418.8V417H174.564V418.8H172.664ZM172.764 431V421H174.464V431H172.764ZM182.946 428.5C182.946 429.34 182.686 429.967 182.166 430.38C181.66 430.793 180.92 431 179.946 431H177.366V429.5H180.146C180.506 429.5 180.78 429.427 180.966 429.28C181.153 429.12 181.246 428.893 181.246 428.6V427.54C181.246 426.94 180.96 426.64 180.386 426.64H180.046C179.113 426.64 178.413 426.44 177.946 426.04C177.493 425.627 177.266 424.98 177.266 424.1V423.52C177.266 422.627 177.52 421.987 178.026 421.6C178.533 421.2 179.28 421 180.266 421H182.546V422.5H180.066C179.733 422.5 179.466 422.58 179.266 422.74C179.066 422.887 178.966 423.107 178.966 423.4V424.12C178.966 424.427 179.053 424.653 179.226 424.8C179.413 424.947 179.646 425.02 179.926 425.02H180.206C181.1 425.02 181.78 425.24 182.246 425.68C182.713 426.107 182.946 426.747 182.946 427.6V428.5Z" fill="white"/>
</g>
<defs>
<filter id="filter0_d_1_54" x="90" y="405" width="122" height="44" filterUnits="userSpaceOnUse" color-interpolation-filters="sRGB">
<feFlood flood-opacity="0" result="BackgroundImageFix"/>
<feColorMatrix in="SourceAlpha" type="matrix" values="0 0 0 0 0 0 0 0 0 0 0 0 0 0 0 0 0 0 127 0" result="hardAlpha"/>
<feOffset dy="2"/>
<feGaussianBlur stdDeviation="0.5"/>
<feComposite in2="hardAlpha" operator="out"/>
<feColorMatrix type="matrix" values="0 0 0 0 0 0 0 0 0 0 0 0 0 0 0 0 0 0 0.12 0"/>
<feBlend mode="normal" in2="BackgroundImageFix" result="effect1_dropShadow_1_54"/>
<feBlend mode="normal" in="SourceGraphic" in2="effect1_dropShadow_1_54" result="shape"/>
</filter>
<clipPath id="clip0_1_54">
<rect width="602" height="602" fill="white" transform="translate(-19)"/>
</clipPath>
</defs>
</svg>
