<svg width="402" height="269" viewBox="0 0 402 269" fill="none" xmlns="http://www.w3.org/2000/svg">
<path d="M153.541 214.59H151.051V209.641C151.051 202.812 145.474 197.268 138.606 197.268C131.737 197.268 126.165 202.812 126.165 209.641V214.59H123.675C120.925 214.59 118.702 216.804 118.702 219.54V244.286C118.702 247.017 120.925 249.236 123.675 249.236H153.541C156.291 249.236 158.514 247.017 158.514 244.286V219.54C158.514 216.804 156.291 214.59 153.541 214.59ZM138.606 236.862C135.86 236.862 133.632 234.644 133.632 231.913C133.632 229.177 135.86 226.964 138.606 226.964C141.356 226.964 143.584 229.177 143.584 231.913C143.584 234.644 141.356 236.862 138.606 236.862ZM146.324 214.59H130.892V209.641C130.892 205.407 134.352 201.966 138.606 201.966C142.864 201.966 146.324 205.407 146.324 209.641V214.59Z" fill="#0456C1"/>
<path d="M100.355 248.153L102.704 248.341L105.996 248.105L108.77 247.539L109.616 247.07L110.602 246.742L111.404 246.365L113.705 244.721L115.025 243.402L116.102 241.995L117.093 240.299L118.316 236.727L118.031 235.881L117.093 235.272L114.459 235.461L113.517 235.316L112.579 235.364L111.636 235.316L110.559 235.881L109.805 236.635L109.336 237.529L108.253 238.747L107.499 239.409L106.793 239.69L105.15 240.584L102.661 240.724L101.293 240.584L99.6014 239.97L97.9581 239.124L96.5951 237.901L95.5608 236.258L95.2321 235.316L94.9034 234.658L94.6666 233.812L94.5264 232.778V229.912L94.8551 228.032L95.5608 226.34L96.0296 225.446L97.1558 224.126L98.2868 223.237L99.5579 222.531L102.704 222.106L104.725 222.203L106.184 222.623L107.03 222.952L107.688 223.469L109.051 224.832L109.568 225.538L110.462 226.432L111.545 226.949L112.39 226.857L113.376 226.901L114.319 226.857L115.634 226.997L117.045 226.857L117.842 226.48L118.171 225.538L117.891 224.503L117.562 223.658L117.282 222.672L116.765 221.918L116.339 221.168L115.682 220.366L115.165 219.477L113.845 218.109L110.65 216.089L106.136 214.585L105.242 214.537L104.304 214.397L101.39 214.349L96.8271 215.243L93.3519 216.891L91.9889 217.925L89.9638 219.757L88.6974 221.357L87.8033 222.72L86.6288 225.349L86.1551 227.278L85.6863 231.323L85.9714 234.755L86.6288 237.433L88.6491 241.522L90.5776 243.59L92.6898 245.427L94.7149 246.505L96.8271 247.399L97.6729 247.587L98.6154 247.916L99.4613 248.105L100.355 248.153Z" fill="#0456C1"/>
<path d="M138.713 248.385L142.898 247.965L144.687 247.399L148.867 245.519L152.159 242.368L152.773 241.522L154.605 238.279L154.933 237.384L155.073 236.447L155.359 235.693L155.547 234.658L155.779 231.367L155.547 228.124L155.17 226.384L154.793 225.398L154.556 224.315L153.71 222.764L153.382 221.918L152.773 221.12L152.207 220.555L151.598 219.709L149.573 217.877L147.176 216.374L141.018 214.445L138.809 214.397L135.518 214.586L134.575 214.774L133.638 215.054L132.792 215.431L131.003 215.9L128.606 217.408L127.949 217.969L126.446 219.003L125.174 220.415L123.575 222.764L123.154 223.566L122.26 226.152L121.883 228.172L121.694 233.624L122.212 236.587L122.917 238.187L123.202 239.173L123.671 240.019L125.88 243.03L127.195 244.296L127.809 245.002L131.003 246.693L131.898 247.07L135.895 248.245L138.713 248.385ZM137.398 240.115L136.46 239.782L135.61 239.69L134.015 238.844L132.555 237.573L132.086 236.916L131.472 236.258L130.583 233.624L130.346 231.275L130.394 229.864L130.723 228.124L131.003 227.278L131.569 226.621L131.989 225.823L132.603 225.069L133.309 224.46L134.672 223.518L135.518 223.092L136.504 222.86L138.669 222.672L140.926 222.812L143.415 223.895L144.875 224.977L145.953 226.572L146.33 227.418L146.615 228.361L146.944 229.206L147.127 231.227L146.847 233.581L146.427 235.504L145.909 236.21L145.484 236.916L144.919 237.761L143.464 238.892L142.618 239.265L141.864 239.69L141.018 239.782L140.124 240.019L137.398 240.115Z" fill="#0456C1"/>
<path d="M185.302 246.978L186.569 247.728L187.888 247.868L188.922 247.539L189.391 246.601L189.483 229.443L189.343 228.641V223.986L189.483 222.86L189.343 216.325L188.874 215.383L187.932 214.866L182.103 214.914L181.213 215.431L180.696 216.417L180.648 217.408L180.788 218.157L180.648 220.134L180.74 221.168L180.648 229.583L180.363 230.381L179.662 230.052L176.322 226.712L175.007 225.678L165.742 216.325L165.041 215.76L163.958 215.194L162.547 214.866L161.464 215.339L161.044 216.229V230.477L160.995 231.275L161.092 233.203L160.947 234.001L161.044 241.71L160.947 242.604L161.044 246.553L161.464 247.447L162.455 247.776L164.379 247.868L165.413 247.776L167.25 247.916L168.236 247.868L169.173 247.399L169.647 245.944L169.691 234.049L169.787 233.107L170.116 232.309L170.725 232.546L171.339 233.344L174.679 236.538L175.288 237.244L176.085 237.761L183.374 245.002L184.597 246.365L185.302 246.978Z" fill="#0456C1"/>
<path d="M205.28 247.868L208.427 247.776L209.79 247.307L210.264 245.988L210.404 243.547L210.264 241.758L210.355 240.772L210.307 238.892L210.404 238.046L210.264 237.012L210.355 229.443L210.215 228.452L210.355 224.363L210.732 222.952L211.627 222.391L213.458 222.295L215.198 222.531L216.184 222.391L217.03 222.435L217.833 221.918L218.393 220.883L218.442 216.417L217.924 215.48L217.03 214.866H214.116L213.222 214.774L212.236 214.914L211.341 214.822L207.538 215.006L206.595 214.822L205.701 214.774L204.715 214.914L203.681 214.822L202.835 215.006L200.06 214.866L198.601 215.006L195.314 214.822L194.42 215.291L193.854 216.374L193.903 217.311L193.806 219.66L193.903 221.12L194.323 221.966L195.169 222.435L196.112 222.343L200.578 222.435L201.472 222.908L201.989 223.846L201.892 225.349L201.989 226.669L201.941 227.703L201.989 228.641L201.892 229.96L202.037 236.964L201.941 237.901L201.892 241.71L201.989 242.701L201.941 245.427L201.849 246.316L202.458 247.351L203.821 247.824L205.28 247.868Z" fill="#0456C1"/>
<path d="M222.815 245.847L223.284 247.307L224.647 247.916L225.584 247.776L227.092 247.916L227.842 247.824H229.253L230.756 247.351L231.181 245.988V244.393L231.273 243.547L231.133 242.556L231.23 239.55L231.65 238.607L232.544 238.09L235.27 238.467L236.213 239.264L236.774 240.207L237.151 241.053L238.137 242.464L239.031 244.156L239.548 244.861L239.925 245.799L240.442 246.601L241.476 247.447L243.076 247.868L246.788 247.824L247.682 247.916L249.234 247.868L250.128 247.447L250.408 246.413L249.891 245.379L249.326 244.721L248.954 243.827L247.354 241.43L246.928 240.584L245.425 238.138L244.86 237.433L244.816 236.306L245.237 235.272L245.894 234.566L246.551 234.001L248.388 230.709L248.997 227.983L248.905 225.021L248.765 224.083L247.919 221.4L247.542 220.603L247.025 219.849L244.343 217.031L242.699 216.137L240.911 215.523L238.233 214.914L236.73 214.866L235.367 214.962H232.544L231.602 214.774H230.664L229.818 215.006H228.876L227.938 214.822L226.904 214.774L224.13 215.006L223.284 215.48L222.718 216.794L222.767 227.563L222.858 228.501L222.718 230.381L222.767 231.415V232.358L222.858 233.247L222.767 234.141L222.718 237.95L222.815 238.892V245.847ZM232.544 230.569L231.602 230.052L231.23 229.298V226.48L231.133 225.678L231.23 223.706L231.65 222.812L232.636 222.435L233.579 222.483L235.459 222.295L236.774 222.575L237.996 222.672L238.891 222.908L240.065 224.363L240.35 225.117L240.534 226.34L240.394 227.747L239.973 228.689L239.456 229.395L238.939 229.815L238.093 230.192L236.73 230.521L235.836 230.569L233.579 230.477L232.544 230.569Z" fill="#0456C1"/>
<path d="M270.761 248.385L274.947 247.965L276.735 247.399L280.916 245.519L284.207 242.368L284.821 241.522L286.653 238.279L286.982 237.384L287.122 236.447L287.407 235.693L287.595 234.658L287.827 231.367L287.595 228.124L287.218 226.384L286.841 225.398L286.605 224.315L285.759 222.764L285.43 221.918L284.821 221.12L284.256 220.555L283.647 219.709L281.621 217.877L279.224 216.374L273.066 214.445L270.858 214.397L267.566 214.586L266.624 214.774L265.686 215.054L264.84 215.431L263.052 215.9L260.654 217.408L259.997 217.969L258.494 219.003L257.223 220.415L255.623 222.764L255.202 223.566L254.308 226.152L253.931 228.172L253.743 233.624L254.26 236.587L254.966 238.187L255.251 239.173L255.72 240.019L257.928 243.03L259.243 244.296L259.857 245.002L263.052 246.693L263.946 247.07L267.943 248.245L270.761 248.385ZM269.446 240.115L268.509 239.782L267.658 239.69L266.063 238.844L264.603 237.573L264.134 236.916L263.521 236.258L262.631 233.624L262.394 231.275L262.443 229.864L262.771 228.124L263.052 227.278L263.617 226.621L264.038 225.823L264.652 225.069L265.357 224.46L266.72 223.518L267.566 223.092L268.552 222.86L270.717 222.672L272.975 222.812L275.464 223.895L276.923 224.977L278.001 226.572L278.378 227.418L278.663 228.361L278.992 229.206L279.176 231.227L278.895 233.581L278.475 235.504L277.958 236.21L277.532 236.916L276.967 237.761L275.512 238.892L274.666 239.265L273.912 239.69L273.066 239.782L272.172 240.019L269.446 240.115Z" fill="#0456C1"/>
<path d="M293.184 246.084L293.513 247.307L294.407 247.776L295.349 247.868L297.321 247.728L299.158 247.824L300.942 247.728L301.836 247.868L302.87 247.776L312.179 247.824L313.073 247.351L313.59 245.896L313.542 242.087L313.117 240.676L312.271 240.115L311.285 240.207L310.391 240.395L309.405 240.255L307.476 240.299L306.539 240.115L305.693 240.255L303.856 240.159L302.87 240.255L301.928 239.878L301.555 238.936L301.599 223L301.507 221.874L301.599 219.994L301.459 217.311L301.507 216.417L301.038 215.383L300.096 214.822H298.264L297.321 215.006L295.441 214.822L294.547 214.962L293.561 215.339L293.141 216.374V222.952L293.044 223.846L293.141 224.789L292.996 226.529L293.044 227.563L293.141 228.452L293.184 246.084Z" fill="#0456C1"/>
<path d="M321.201 247.916L323.506 247.824L324.352 247.868L325.435 247.776L326.421 247.399L326.846 246.413L326.798 245.47L326.846 244.436L326.75 242.701L326.846 241.807L326.798 240.724L327.218 239.878L328.301 239.361L329.335 239.264L330.321 239.453L335.164 239.081L339.63 237.292L340.336 236.727L340.993 235.978L341.607 235.364L342.216 234.658L343.202 233.155L344.005 231.323L344.145 230.289L344.425 229.535L344.522 225.678L344.333 224.88L344.193 223.846L343.628 222.106L342.733 220.511L341.607 218.96L339.49 217.123L337.939 216.089L336.059 215.523L335.261 215.194H334.319L333.381 214.866L331.97 214.822L330.466 214.866L329.432 215.006L326.561 214.962L325.623 214.822L322.709 215.006L321.675 214.962L320.829 214.822L319.838 215.006L318.852 215.523L318.431 216.277L318.475 221.966L318.286 223.846L318.383 224.74L318.335 236.915L318.431 237.81L318.383 246.505L318.9 247.399L320.355 247.868L321.201 247.916ZM328.253 231.84L327.315 231.275L326.89 230.477L326.75 226.669L326.846 225.678V223.754L327.315 222.86L328.301 222.391L333.192 222.531L334.13 222.952L334.884 223.469L335.493 224.083L335.967 225.021L336.107 225.866L336.199 227.186L336.107 228.452L335.778 229.298L335.353 230.052L334.744 230.806L333.99 231.367L333.236 231.604L331.781 231.792L329.384 231.744L328.253 231.84Z" fill="#0456C1"/>
<path d="M360.316 247.916H361.727L363.182 247.728H364.124L365.487 247.307L367.416 246.978L369.625 246.036L372.771 243.919L375.077 240.961L375.545 240.018L376.111 239.264L376.865 237.433L377.097 236.538L377.285 235.552L377.571 234.755L377.711 233.812V232.826L377.851 231.323L377.803 229.96L377.145 226.243L376.536 224.46L376.159 223.566L374.559 221.072L372.07 218.297L369.668 216.702L368.779 216.185L367.836 215.997L367.039 215.62L366.048 215.383L363.278 214.962L352.558 214.866L351.712 215.006L350.77 214.962L349.735 215.383L349.315 216.374L349.267 242.653L349.363 243.547V245.944L349.832 247.399L350.77 247.868L351.712 247.776L357.445 247.868L358.387 247.728L360.316 247.916ZM360.175 240.207L359.281 240.115L358.199 239.598L357.822 238.704L357.778 237.901L357.822 235.978L357.633 233.672L357.822 231.323L357.73 224.832L357.822 224.035L358.295 222.952L359.798 222.623L361.77 222.575L363.133 222.72L364.97 223.237L365.816 223.658L366.522 224.175L367.227 224.832L367.933 225.678L368.402 226.48L368.822 227.326L369.576 231.463L369.107 234.755L368.305 236.495L366.565 238.467L364.97 239.501L363.607 239.927L361.582 240.159L360.175 240.207Z" fill="#0456C1"/>
<path d="M285.703 214.59H283.214V209.641C283.214 202.812 277.641 197.268 270.773 197.268C263.905 197.268 258.332 202.812 258.332 209.641V214.59H255.843C253.093 214.59 250.865 216.804 250.865 219.54V244.286C250.865 247.017 253.093 249.236 255.843 249.236H285.703C288.453 249.236 290.682 247.017 290.682 244.286V219.54C290.682 216.804 288.453 214.59 285.703 214.59ZM270.773 236.862C268.023 236.862 265.795 234.644 265.795 231.913C265.795 229.177 268.023 226.964 270.773 226.964C273.523 226.964 275.751 229.177 275.751 231.913C275.751 234.644 273.523 236.862 270.773 236.862ZM278.487 214.59H263.059V209.641C263.059 205.407 266.52 201.966 270.773 201.966C275.026 201.966 278.487 205.407 278.487 209.641V214.59Z" fill="#0456C1"/>
</svg>
