<svg width="22" height="24" viewBox="0 0 22 24" fill="none" xmlns="http://www.w3.org/2000/svg">
<path d="M18.1593 9.58786V6.34134C18.2003 4.69675 17.4189 3.10622 15.9859 1.91779C14.553 0.729357 12.5853 0.0397971 10.5133 0C8.4413 0.0397971 6.47354 0.729357 5.0406 1.91779C3.60766 3.10622 2.82621 4.69675 2.86726 6.34134V9.58786H0V22.4829C0 22.8853 0.20139 23.2712 0.559867 23.5557C0.918343 23.8402 1.40454 24 1.9115 24H19.115C19.622 24 20.1082 23.8402 20.4667 23.5557C20.8252 23.2712 21.0265 22.8853 21.0265 22.4829V9.58786H18.1593ZM11.469 17.3477V19.4488H9.55752V17.2794C9.09221 17.0894 8.72275 16.7788 8.51045 16.3992C8.29814 16.0196 8.25576 15.5938 8.39034 15.1925C8.52491 14.7911 8.82835 14.4384 9.2503 14.1927C9.67225 13.9471 10.1873 13.8233 10.7101 13.842C11.2329 13.8607 11.7319 14.0206 12.1243 14.2954C12.5168 14.5701 12.7791 14.943 12.8677 15.3524C12.9563 15.7617 12.8659 16.1827 12.6115 16.5457C12.3571 16.9086 11.954 17.1916 11.469 17.3477ZM16.2478 9.58786H4.77876V6.34134C4.73755 5.09904 5.31757 3.8943 6.39208 2.99035C7.46659 2.0864 8.94823 1.55672 10.5133 1.51707C12.0783 1.55672 13.56 2.0864 14.6345 2.99035C15.709 3.8943 16.289 5.09904 16.2478 6.34134V9.58786Z" fill="#1682EF"/>
</svg>
