<svg width="214" height="67" viewBox="0 0 214 67" fill="none" xmlns="http://www.w3.org/2000/svg">
<path d="M26.1232 48.2285L27.6178 48.3476L29.7158 48.198L31.4799 47.8408L32.0189 47.5415L32.6468 47.3339L33.1583 47.0957L34.6253 46.0515L35.4615 45.2149L36.1506 44.3203L36.7784 43.2455L37.5564 40.9769L37.3787 40.4395L36.7784 40.0517L35.1031 40.1708L34.5028 40.0823L33.9056 40.1128L33.3053 40.0823L32.6192 40.4395L32.1384 40.9158L31.8413 41.4837L31.1522 42.2593L30.6713 42.6776L30.2242 42.8577L29.1767 43.4226L27.5902 43.5142L26.7204 43.4226L25.6423 43.0348L24.5949 42.4974L23.7281 41.7219L23.0696 40.6777L22.8583 40.0823L22.65 39.6639L22.4999 39.1266L22.4111 38.4701V36.6503L22.6194 35.4565L23.0696 34.3817L23.3667 33.8138L24.0864 32.9772L24.8031 32.4123L25.6117 31.9635L27.6178 31.6948L28.9072 31.7558L29.8352 32.0245L30.3743 32.2321L30.7908 32.5619L31.6606 33.426L31.9883 33.8748L32.558 34.4397L33.2471 34.7695L33.7861 34.7084L34.414 34.7389L35.0143 34.7084L35.8504 34.8L36.7509 34.7084L37.2593 34.4702L37.4676 33.8748L37.2869 33.2184L37.0786 32.681L36.8979 32.052L36.5702 31.5757L36.3007 31.0994L35.8811 30.5895L35.5534 30.0246L34.7142 29.1574L32.6774 27.875L29.8046 26.9194L29.2349 26.8888L28.6377 26.8003L26.7817 26.7697L23.8751 27.3377L21.6607 28.3819L20.794 29.0384L19.5046 30.2017L18.696 31.2184L18.1294 32.0825L17.379 33.7558L17.0819 34.9771L16.7818 37.5449L16.9625 39.722L17.379 41.4257L18.6684 44.021L19.8935 45.334L21.2412 46.4973L22.5306 47.1843L23.8751 47.7522L24.4142 47.8713L25.0145 48.0789L25.5535 48.198L26.1232 48.2285Z" fill="#5B727E"/>
<path d="M50.5505 48.3781L53.2151 48.1094L54.3514 47.7522L57.016 46.5583L59.1109 44.5584L59.4999 44.021L60.6668 41.9631L60.8781 41.3952L60.9669 40.7967L61.1476 40.3204L61.2671 39.6639L61.4171 37.5755L61.2671 35.5145L61.0282 34.4122L60.7893 33.7832L60.6392 33.0962L60.1002 32.1131L59.8888 31.5757L59.4999 31.0688L59.1415 30.7116L58.7526 30.1742L57.4662 29.0078L55.9379 28.0552L52.0176 26.8308L50.6087 26.8003L48.5138 26.9193L47.9135 27.0384L47.3163 27.2186L46.7772 27.4567L45.641 27.756L44.1126 28.7116L43.6931 29.0689L42.7344 29.7254L41.9289 30.62L40.909 32.1131L40.6395 32.6199L40.0729 34.2626L39.8309 35.545L39.7115 39.0075L40.0423 40.8883L40.4894 41.902L40.6701 42.528L40.9703 43.0653L42.3761 44.9767L43.2153 45.7828L43.6042 46.2286L45.641 47.3034L46.2076 47.5415L48.7527 48.2896L50.5505 48.3781ZM49.7113 43.1264L49.111 42.9157L48.572 42.8577L47.5552 42.3203L46.6272 41.5142L46.327 41.0959L45.938 40.6776L45.3714 39.0075L45.2214 37.5144L45.252 36.6198L45.4603 35.5145L45.641 34.9771L45.9993 34.5588L46.2688 34.0519L46.6578 33.5756L47.108 33.1878L47.9748 32.5894L48.5138 32.3207L49.1417 32.1711L50.5199 32.052L51.9563 32.1436L53.5428 32.8306L54.4708 33.5145L55.16 34.5313L55.3989 35.0687L55.5796 35.6641L55.7878 36.2015L55.9073 37.4839L55.7296 38.9769L55.4601 40.2013L55.1293 40.6471L54.8598 41.0959L54.5015 41.6333L53.5735 42.3509L53.0344 42.589L52.5566 42.8577L52.0176 42.9157L51.4479 43.0653L49.7113 43.1264Z" fill="#5B727E"/>
<path d="M80.2157 47.4835L81.0243 47.9599L81.8635 48.0515L82.522 47.8408L82.819 47.2454L82.8803 36.3511L82.7915 35.8442V32.8886L82.8803 32.1711L82.7915 28.0247L82.4913 27.4262L81.891 27.0995L78.179 27.1301L77.6124 27.4568L77.2816 28.0827L77.251 28.7117L77.3429 29.188L77.251 30.4429L77.3122 31.0994L77.251 36.4396L77.0733 36.9465L76.6231 36.7389L74.4976 34.6199L73.6584 33.9634L67.7626 28.0247L67.3124 27.6674L66.6233 27.3071L65.7259 27.0995L65.0368 27.3987L64.7672 27.9636V37.0076L64.7397 37.5144L64.7979 38.7388L64.709 39.2457L64.7672 44.1401L64.709 44.7081L64.7672 47.2148L65.0368 47.7828L65.6677 47.9904L66.8928 48.0515L67.5513 47.9904L68.7212 48.0789L69.3491 48.0515L69.9463 47.7522L70.2465 46.8271L70.2771 39.2762L70.3353 38.6777L70.5466 38.1709L70.9356 38.3205L71.3246 38.8273L73.4501 40.8578L73.8391 41.3036L74.3475 41.6334L78.9876 46.2286L79.7655 47.0958L80.2157 47.4835Z" fill="#5B727E"/>
<path d="M92.9373 48.0514L94.9434 47.9904L95.8132 47.6911L96.1103 46.8576L96.2022 45.3034L96.1103 44.1706L96.1716 43.5447L96.141 42.3509L96.2022 41.8135L96.1103 41.157L96.1716 36.3511L96.0828 35.7251L96.1716 33.1268L96.4105 32.2321L96.9802 31.8749L98.1471 31.8138L99.2558 31.9634L99.8836 31.8749L100.423 31.9024L100.931 31.5757L101.289 30.9192L101.32 28.0827L100.992 27.4873L100.423 27.0995H98.5667L97.997 27.0384L97.3691 27.13L96.7995 27.069L94.3738 27.188L93.7765 27.069L93.2069 27.0384L92.579 27.13L91.9205 27.069L91.3815 27.188L89.6143 27.0995L88.6862 27.188L86.5913 27.069L86.0217 27.3682L85.6633 28.0552L85.6939 28.6506L85.6327 30.1437L85.6939 31.0688L85.9635 31.6062L86.5025 31.9024L87.0997 31.8444L89.945 31.9024L90.5116 32.2016L90.8424 32.8001L90.7812 33.7557L90.8424 34.5893L90.8118 35.2458L90.8424 35.8442L90.7812 36.6778L90.873 41.1265L90.8118 41.7219L90.7812 44.1401L90.8424 44.766L90.8118 46.4973L90.7536 47.0652L91.1426 47.7217L92.0093 48.0209L92.9373 48.0514Z" fill="#5B727E"/>
<path d="M104.103 46.766L104.403 47.6911L105.27 48.0789L105.87 47.9904L106.829 48.0789L107.307 48.0209H108.204L109.163 47.7217L109.432 46.8576V45.8408L109.494 45.3034L109.402 44.6775L109.463 42.7661L109.733 42.1707L110.299 41.841L112.036 42.0822L112.636 42.589L112.994 43.1844L113.233 43.7218L113.864 44.6164L114.431 45.6912L114.762 46.14L115 46.7354L115.331 47.2453L115.99 47.7827L117.007 48.0514L119.371 48.0209L119.941 48.0789L120.927 48.0514L121.497 47.7827L121.677 47.1263L121.346 46.4667L120.988 46.0515L120.749 45.4836L119.729 43.96L119.46 43.4226L118.504 41.8715L118.143 41.4257L118.115 40.7082L118.385 40.0517L118.801 39.6029L119.221 39.2456L120.388 37.1571L120.78 35.4259L120.719 33.5451L120.63 32.9497L120.091 31.2459L119.852 30.7391L119.521 30.2627L117.815 28.4704L116.768 27.9056L115.628 27.5178L113.922 27.13L112.964 27.0995L112.097 27.1575H110.299L109.702 27.0384H109.102L108.566 27.188H107.965L107.368 27.069L106.707 27.0384L104.942 27.188L104.403 27.4873L104.045 28.3239L104.073 35.1572L104.134 35.7526L104.045 36.9465L104.073 37.6029V38.2014L104.134 38.7693L104.073 39.3342L104.045 41.7524L104.103 42.3509V46.766ZM110.299 37.0656L109.702 36.7388L109.463 36.2625V34.4702L109.402 33.9634L109.463 32.7085L109.733 32.1436L110.36 31.9024L110.958 31.9329L112.155 31.8138L112.994 31.994L113.772 32.052L114.342 32.2016L115.089 33.1268L115.27 33.6061L115.389 34.3817L115.301 35.2763L115.031 35.8748L114.7 36.3205L114.373 36.5892L113.834 36.8274L112.964 37.0381L112.397 37.0656L110.958 37.0075L110.299 37.0656Z" fill="#5B727E"/>
<path d="M134.64 48.3781L137.304 48.1094L138.44 47.7522L141.105 46.5583L143.2 44.5584L143.589 44.021L144.756 41.9631L144.967 41.3952L145.056 40.7967L145.237 40.3204L145.356 39.6639L145.506 37.5755L145.356 35.5145L145.117 34.4122L144.878 33.7832L144.728 33.0962L144.189 32.1131L143.978 31.5757L143.589 31.0688L143.231 30.7116L142.842 30.1742L141.555 29.0078L140.027 28.0552L136.107 26.8308L134.698 26.8003L132.603 26.9193L132.003 27.0384L131.405 27.2186L130.866 27.4567L129.73 27.756L128.202 28.7116L127.782 29.0689L126.823 29.7254L126.018 30.62L124.998 32.1131L124.728 32.6199L124.162 34.2626L123.92 35.545L123.8 39.0075L124.131 40.8883L124.578 41.902L124.759 42.528L125.059 43.0653L126.465 44.9767L127.304 45.7828L127.693 46.2286L129.73 47.3034L130.297 47.5415L132.842 48.2896L134.64 48.3781ZM133.8 43.1264L133.2 42.9157L132.661 42.8577L131.644 42.3203L130.716 41.5142L130.416 41.0959L130.027 40.6776L129.46 39.0075L129.31 37.5144L129.341 36.6198L129.549 35.5145L129.73 34.9771L130.088 34.5588L130.358 34.0519L130.747 33.5756L131.197 33.1878L132.064 32.5894L132.603 32.3207L133.231 32.1711L134.609 32.052L136.045 32.1436L137.632 32.8306L138.56 33.5145L139.249 34.5313L139.488 35.0687L139.669 35.6641L139.877 36.2015L139.996 37.4839L139.819 38.9769L139.549 40.2013L139.218 40.6471L138.949 41.0959L138.59 41.6333L137.662 42.3509L137.123 42.589L136.646 42.8577L136.107 42.9157L135.537 43.0653L133.8 43.1264Z" fill="#5B727E"/>
<path d="M148.918 46.9156L149.126 47.6911L149.695 47.9903L150.296 48.0514L151.552 47.9598L152.718 48.0209L153.858 47.9598L154.424 48.0514L155.083 47.9903L161.012 48.0209L161.582 47.7216L161.91 46.7965L161.879 44.3783L161.61 43.4836L161.071 43.1264L160.443 43.1844L159.873 43.3035L159.245 43.2149L158.017 43.2455L157.42 43.1264L156.881 43.2149L155.714 43.1569L155.083 43.2149L154.486 42.9768L154.247 42.3783L154.277 32.2626L154.216 31.5451L154.277 30.3513L154.185 28.6506L154.216 28.0826L153.916 27.4262L153.319 27.0689H152.152L151.552 27.188L150.354 27.0689L149.784 27.1575L149.156 27.3987L148.887 28.0552V32.2321L148.829 32.8L148.887 33.3954L148.798 34.5007L148.829 35.1572L148.887 35.7251L148.918 46.9156Z" fill="#5B727E"/>
<path d="M166.759 48.0789L168.226 48.0209L168.765 48.0514L169.455 47.9903L170.082 47.7522L170.352 47.1262L170.321 46.5278L170.352 45.8713L170.291 44.766L170.352 44.2012L170.321 43.5142L170.591 42.9768L171.28 42.647L171.939 42.589L172.566 42.7081L175.651 42.4699L178.493 41.3341L178.943 40.9768L179.363 40.5005L179.752 40.1128L180.141 39.6639L180.768 38.7082L181.277 37.5449L181.369 36.8884L181.546 36.4091L181.608 33.9634L181.488 33.4565L181.399 32.8L181.038 31.6947L180.471 30.681L179.752 29.6948L178.404 28.5315L177.418 27.875L176.22 27.5178L175.709 27.3071H175.112L174.511 27.0995L173.614 27.0689L172.655 27.0995L171.997 27.188L170.171 27.1575L169.574 27.0689L167.718 27.188L167.06 27.1575L166.521 27.0689L165.89 27.188L165.262 27.5178L164.992 27.9941L165.023 31.6062L164.903 32.8L164.962 33.3649L164.934 41.0959L164.992 41.6638L164.962 47.1843L165.292 47.7522L166.22 48.0514L166.759 48.0789ZM171.249 37.8716L170.649 37.5144L170.383 37.0075L170.291 34.5893L170.352 33.9634V32.739L170.649 32.171L171.28 31.8749L174.392 31.9634L174.992 32.2321L175.47 32.5619L175.859 32.9496L176.159 33.545L176.248 34.0824L176.309 34.919L176.248 35.7251L176.04 36.2625L175.77 36.7388L175.381 37.2151L174.9 37.5754L174.422 37.7251L173.494 37.8441L171.969 37.8136L171.249 37.8716Z" fill="#5B727E"/>
<path d="M191.667 48.0789H192.564L193.492 47.9599H194.089L194.959 47.6912L196.187 47.4835L197.593 46.8851L199.599 45.5416L201.066 43.6638L201.366 43.0654L201.725 42.589L202.203 41.4257L202.353 40.8578L202.472 40.2319L202.653 39.722L202.742 39.1266V38.5006L202.83 37.545L202.803 36.6778L202.383 34.3206L201.994 33.1879L201.755 32.6199L200.735 31.0383L199.149 29.2765L197.624 28.2628L197.054 27.9331L196.457 27.814L195.945 27.5758L195.318 27.4262L193.55 27.1575L186.727 27.0995L186.187 27.1881L185.587 27.1575L184.929 27.4262L184.659 28.0552L184.632 44.7386L184.69 45.3035V46.8271L184.99 47.7522L185.587 48.0515L186.187 47.9904L189.838 48.0515L190.439 47.9599L191.667 48.0789ZM191.575 43.1844L191.008 43.1264L190.319 42.7967L190.08 42.2318L190.05 41.7219L190.08 40.5006L189.958 39.038L190.08 37.545L190.019 33.426L190.08 32.9192L190.377 32.2322L191.336 32.0245L192.595 31.994L193.461 32.0825L194.628 32.4123L195.167 32.681L195.618 33.0077L196.065 33.426L196.515 33.9634L196.815 34.4703L197.085 35.0076L197.562 37.6335L197.262 39.722L196.754 40.8273L195.648 42.0822L194.628 42.7387L193.762 43.0074L192.472 43.157L191.575 43.1844Z" fill="#5B727E"/>
<mask id="mask0_1_11" style="mask-type:luminance" maskUnits="userSpaceOnUse" x="122" y="16" width="26" height="34">
<path d="M122.735 16.9397H147.417V49.1615H122.735V16.9397Z" fill="white"/>
</mask>
<g mask="url(#mask0_1_11)">
<path d="M144.312 27.6783H142.774V24.6097C142.774 20.3747 139.325 16.9397 135.077 16.9397C130.829 16.9397 127.381 20.3747 127.381 24.6097V27.6783H125.84C124.14 27.6783 122.762 29.0522 122.762 30.7499V46.0929C122.762 47.7875 124.14 49.1615 125.84 49.1615H144.312C146.011 49.1615 147.39 47.7875 147.39 46.0929V30.7499C147.39 29.0522 146.011 27.6783 144.312 27.6783ZM135.077 41.4885C133.375 41.4885 131.999 40.1175 131.999 38.4199C131.999 36.7253 133.375 35.3513 135.077 35.3513C136.777 35.3513 138.155 36.7253 138.155 38.4199C138.155 40.1175 136.777 41.4885 135.077 41.4885ZM139.849 27.6783H130.306V24.6097C130.306 21.9868 132.443 19.8526 135.077 19.8526C137.708 19.8526 139.849 21.9868 139.849 24.6097V27.6783Z" fill="#5B727E"/>
</g>
<mask id="mask1_1_11" style="mask-type:luminance" maskUnits="userSpaceOnUse" x="37" y="16" width="26" height="34">
<path d="M37.7006 16.9397H62.3833V49.1615H37.7006V16.9397Z" fill="white"/>
</mask>
<g mask="url(#mask1_1_11)">
<path d="M59.2777 27.6783H57.7371V24.6097C57.7371 20.3747 54.2915 16.9397 50.0435 16.9397C45.7924 16.9397 42.3468 20.3747 42.3468 24.6097V27.6783H40.8063C39.1064 27.6783 37.7282 29.0522 37.7282 30.7499V46.0929C37.7282 47.7875 39.1064 49.1615 40.8063 49.1615H59.2777C60.9775 49.1615 62.3557 47.7875 62.3557 46.0929V30.7499C62.3557 29.0522 60.9775 27.6783 59.2777 27.6783ZM50.0435 41.4885C48.3406 41.4885 46.9624 40.1175 46.9624 38.4199C46.9624 36.7253 48.3406 35.3513 50.0435 35.3513C51.7433 35.3513 53.1216 36.7253 53.1216 38.4199C53.1216 40.1175 51.7433 41.4885 50.0435 41.4885ZM54.8153 27.6783H45.2717V24.6097C45.2717 21.9868 47.4095 19.8526 50.0435 19.8526C52.6744 19.8526 54.8153 21.9868 54.8153 24.6097V27.6783Z" fill="#5B727E"/>
</g>
</svg>
